<?xml version="1.0" encoding="UTF-8" ?>
<svg version="1.1" width="50" height="50" xmlns="http://www.w3.org/2000/svg" shape-rendering="crispEdges">
<rect x="0" y="0" width="19" height="1" fill="#9CDBA9" />
<rect x="19" y="0" width="31" height="1" fill="#B4EFC0" />
<rect x="0" y="1" width="7" height="1" fill="#9CDBA9" />
<rect x="7" y="1" width="1" height="1" fill="#A60E90" />
<rect x="8" y="1" width="28" height="1" fill="#9CDBA9" />
<rect x="36" y="1" width="14" height="1" fill="#B4EFC0" />
<rect x="0" y="2" width="1" height="1" fill="#9CDBA9" />
<rect x="1" y="2" width="4" height="2" fill="#B4EFC0" />
<rect x="5" y="2" width="3" height="1" fill="#9CDBA9" />
<rect x="8" y="2" width="3" height="1" fill="#B4EFC0" />
<rect x="11" y="2" width="4" height="1" fill="#9CDBA9" />
<rect x="15" y="2" width="1" height="1" fill="#A60E90" />
<rect x="16" y="2" width="10" height="1" fill="#9CDBA9" />
<rect x="26" y="2" width="1" height="1" fill="#A60E90" />
<rect x="27" y="2" width="16" height="1" fill="#9CDBA9" />
<rect x="43" y="2" width="7" height="1" fill="#B4EFC0" />
<rect x="0" y="3" width="1" height="2" fill="#B4EFC0" />
<rect x="5" y="3" width="4" height="1" fill="#B4EFC0" />
<rect x="9" y="3" width="1" height="5" fill="#9CDBA9" />
<rect x="10" y="3" width="3" height="1" fill="#B4EFC0" />
<rect x="13" y="3" width="6" height="3" fill="#9CDBA9" />
<rect x="19" y="3" width="1" height="1" fill="#FB57E4" />
<rect x="20" y="3" width="14" height="2" fill="#9CDBA9" />
<rect x="34" y="3" width="1" height="1" fill="#FB57E4" />
<rect x="35" y="3" width="9" height="1" fill="#9CDBA9" />
<rect x="44" y="3" width="6" height="1" fill="#B4EFC0" />
<rect x="1" y="4" width="2" height="1" fill="#B4EFC0" />
<rect x="3" y="4" width="6" height="1" fill="#9CDBA9" />
<rect x="10" y="4" width="3" height="4" fill="#9CDBA9" />
<rect x="19" y="4" width="1" height="4" fill="#9CDBA9" />
<rect x="34" y="4" width="7" height="12" fill="#9CDBA9" />
<rect x="41" y="4" width="1" height="1" fill="#A60E90" />
<rect x="42" y="4" width="4" height="2" fill="#9CDBA9" />
<rect x="46" y="4" width="4" height="1" fill="#B4EFC0" />
<rect x="0" y="5" width="8" height="1" fill="#9CDBA9" />
<rect x="8" y="5" width="1" height="1" fill="#FB57E4" />
<rect x="20" y="5" width="2" height="1" fill="#9CDBA9" />
<rect x="22" y="5" width="2" height="1" fill="#8B2896" />
<rect x="24" y="5" width="3" height="2" fill="#9CDBA9" />
<rect x="27" y="5" width="2" height="1" fill="#8B2896" />
<rect x="29" y="5" width="5" height="2" fill="#9CDBA9" />
<rect x="41" y="5" width="1" height="33" fill="#9CDBA9" />
<rect x="46" y="5" width="2" height="29" fill="#9CDBA9" />
<rect x="48" y="5" width="2" height="3" fill="#B4EFC0" />
<rect x="0" y="6" width="1" height="2" fill="#9CDBA9" />
<rect x="1" y="6" width="1" height="1" fill="#A60E90" />
<rect x="2" y="6" width="7" height="2" fill="#9CDBA9" />
<rect x="13" y="6" width="4" height="1" fill="#9CDBA9" />
<rect x="17" y="6" width="2" height="1" fill="#8B2896" />
<rect x="20" y="6" width="1" height="5" fill="#9CDBA9" />
<rect x="21" y="6" width="1" height="5" fill="#8B2896" />
<rect x="22" y="6" width="1" height="4" fill="#9CDBA9" />
<rect x="23" y="6" width="1" height="2" fill="#8B2896" />
<rect x="27" y="6" width="1" height="5" fill="#9CDBA9" />
<rect x="28" y="6" width="1" height="6" fill="#8B2896" />
<rect x="42" y="6" width="3" height="6" fill="#9CDBA9" />
<rect x="45" y="6" width="1" height="1" fill="#A60E90" />
<rect x="1" y="7" width="1" height="1" fill="#9CDBA9" />
<rect x="13" y="7" width="2" height="6" fill="#9CDBA9" />
<rect x="15" y="7" width="3" height="1" fill="#8B2896" />
<rect x="18" y="7" width="1" height="5" fill="#9CDBA9" />
<rect x="24" y="7" width="1" height="3" fill="#8B2896" />
<rect x="25" y="7" width="2" height="3" fill="#9CDBA9" />
<rect x="29" y="7" width="3" height="6" fill="#9CDBA9" />
<rect x="32" y="7" width="1" height="7" fill="#8B2896" />
<rect x="33" y="7" width="1" height="14" fill="#9CDBA9" />
<rect x="45" y="7" width="1" height="28" fill="#9CDBA9" />
<rect x="0" y="8" width="9" height="1" fill="#B4EFC0" />
<rect x="9" y="8" width="1" height="4" fill="#4F1755" />
<rect x="10" y="8" width="1" height="3" fill="#8B2896" />
<rect x="11" y="8" width="2" height="4" fill="#9CDBA9" />
<rect x="15" y="8" width="1" height="3" fill="#8B2896" />
<rect x="16" y="8" width="2" height="2" fill="#9CDBA9" />
<rect x="19" y="8" width="1" height="1" fill="#FB57E4" />
<rect x="23" y="8" width="1" height="1" fill="#9CDBA9" />
<rect x="48" y="8" width="1" height="26" fill="#9CDBA9" />
<rect x="49" y="8" width="1" height="15" fill="#B4EFC0" />
<rect x="0" y="9" width="8" height="1" fill="#B4EFC0" />
<rect x="8" y="9" width="1" height="12" fill="#9CDBA9" />
<rect x="19" y="9" width="1" height="5" fill="#8B2896" />
<rect x="23" y="9" width="1" height="2" fill="#8B2896" />
<rect x="0" y="10" width="8" height="3" fill="#9CDBA9" />
<rect x="16" y="10" width="1" height="5" fill="#8B2896" />
<rect x="17" y="10" width="1" height="1" fill="#9CDBA9" />
<rect x="22" y="10" width="1" height="4" fill="#8B2896" />
<rect x="24" y="10" width="1" height="1" fill="#9CDBA9" />
<rect x="25" y="10" width="1" height="1" fill="#8B2896" />
<rect x="26" y="10" width="1" height="2" fill="#9CDBA9" />
<rect x="10" y="11" width="1" height="2" fill="#4F1755" />
<rect x="15" y="11" width="1" height="3" fill="#9CDBA9" />
<rect x="17" y="11" width="1" height="1" fill="#8B2896" />
<rect x="20" y="11" width="1" height="2" fill="#8B2896" />
<rect x="21" y="11" width="1" height="7" fill="#4F1755" />
<rect x="23" y="11" width="1" height="1" fill="#9CDBA9" />
<rect x="24" y="11" width="2" height="1" fill="#4F1755" />
<rect x="27" y="11" width="1" height="2" fill="#8B2896" />
<rect x="9" y="12" width="1" height="8" fill="#9CDBA9" />
<rect x="11" y="12" width="1" height="2" fill="#4F1755" />
<rect x="12" y="12" width="1" height="1" fill="#9CDBA9" />
<rect x="17" y="12" width="2" height="1" fill="#4F1755" />
<rect x="23" y="12" width="1" height="1" fill="#8B2896" />
<rect x="24" y="12" width="1" height="2" fill="#4F1755" />
<rect x="25" y="12" width="2" height="1" fill="#8B2896" />
<rect x="28" y="12" width="1" height="3" fill="#9CDBA9" />
<rect x="42" y="12" width="2" height="24" fill="#9CDBA9" />
<rect x="44" y="12" width="1" height="1" fill="#FB57E4" />
<rect x="0" y="13" width="2" height="28" fill="#9CDBA9" />
<rect x="2" y="13" width="1" height="1" fill="#FB57E4" />
<rect x="3" y="13" width="5" height="2" fill="#9CDBA9" />
<rect x="10" y="13" width="1" height="6" fill="#9CDBA9" />
<rect x="12" y="13" width="1" height="2" fill="#4F1755" />
<rect x="13" y="13" width="1" height="1" fill="#8B2896" />
<rect x="14" y="13" width="1" height="1" fill="#9CDBA9" />
<rect x="17" y="13" width="1" height="2" fill="#8B2896" />
<rect x="18" y="13" width="1" height="2" fill="#4F1755" />
<rect x="20" y="13" width="1" height="2" fill="#4F1755" />
<rect x="23" y="13" width="1" height="2" fill="#4F1755" />
<rect x="25" y="13" width="1" height="1" fill="#8B2896" />
<rect x="26" y="13" width="2" height="2" fill="#9CDBA9" />
<rect x="29" y="13" width="2" height="1" fill="#9CDBA9" />
<rect x="31" y="13" width="1" height="2" fill="#8B2896" />
<rect x="44" y="13" width="1" height="7" fill="#9CDBA9" />
<rect x="2" y="14" width="1" height="18" fill="#9CDBA9" />
<rect x="11" y="14" width="1" height="5" fill="#9CDBA9" />
<rect x="13" y="14" width="2" height="1" fill="#4F1755" />
<rect x="15" y="14" width="1" height="1" fill="#8B2896" />
<rect x="19" y="14" width="1" height="1" fill="#4F1755" />
<rect x="22" y="14" width="1" height="3" fill="#4F1755" />
<rect x="24" y="14" width="2" height="1" fill="#9CDBA9" />
<rect x="29" y="14" width="1" height="1" fill="#9CDBA9" />
<rect x="30" y="14" width="1" height="2" fill="#8B2896" />
<rect x="32" y="14" width="1" height="7" fill="#9CDBA9" />
<rect x="3" y="15" width="2" height="16" fill="#9CDBA9" />
<rect x="5" y="15" width="1" height="1" fill="#A60E90" />
<rect x="6" y="15" width="2" height="7" fill="#9CDBA9" />
<rect x="12" y="15" width="2" height="4" fill="#9CDBA9" />
<rect x="14" y="15" width="4" height="1" fill="#4F1755" />
<rect x="18" y="15" width="3" height="1" fill="#8B2896" />
<rect x="23" y="15" width="7" height="1" fill="#8B2896" />
<rect x="31" y="15" width="1" height="7" fill="#9CDBA9" />
<rect x="5" y="16" width="1" height="15" fill="#9CDBA9" />
<rect x="14" y="16" width="3" height="4" fill="#9CDBA9" />
<rect x="17" y="16" width="3" height="1" fill="#4F1755" />
<rect x="20" y="16" width="1" height="1" fill="#8B2896" />
<rect x="23" y="16" width="1" height="1" fill="#8B2896" />
<rect x="24" y="16" width="7" height="4" fill="#9CDBA9" />
<rect x="34" y="16" width="1" height="1" fill="#A60E90" />
<rect x="35" y="16" width="6" height="5" fill="#9CDBA9" />
<rect x="17" y="17" width="2" height="5" fill="#9CDBA9" />
<rect x="19" y="17" width="2" height="1" fill="#4F1755" />
<rect x="22" y="17" width="1" height="1" fill="#8B2896" />
<rect x="23" y="17" width="1" height="6" fill="#9CDBA9" />
<rect x="34" y="17" width="1" height="4" fill="#9CDBA9" />
<rect x="19" y="18" width="2" height="7" fill="#9CDBA9" />
<rect x="21" y="18" width="1" height="3" fill="#288F96" />
<rect x="22" y="18" width="1" height="2" fill="#9CDBA9" />
<rect x="10" y="19" width="4" height="1" fill="#18695F" />
<rect x="9" y="20" width="3" height="1" fill="#18695F" />
<rect x="12" y="20" width="3" height="13" fill="#289688" />
<rect x="15" y="20" width="2" height="1" fill="#9CDBA9" />
<rect x="22" y="20" width="1" height="4" fill="#288F96" />
<rect x="24" y="20" width="4" height="4" fill="#9CDBA9" />
<rect x="28" y="20" width="1" height="1" fill="#FB57E4" />
<rect x="29" y="20" width="2" height="2" fill="#9CDBA9" />
<rect x="44" y="20" width="1" height="1" fill="#A60E90" />
<rect x="8" y="21" width="3" height="1" fill="#18695F" />
<rect x="11" y="21" width="1" height="11" fill="#289688" />
<rect x="15" y="21" width="2" height="14" fill="#289688" />
<rect x="21" y="21" width="1" height="7" fill="#9CDBA9" />
<rect x="28" y="21" width="1" height="3" fill="#9CDBA9" />
<rect x="32" y="21" width="3" height="1" fill="#18695F" />
<rect x="35" y="21" width="3" height="12" fill="#289688" />
<rect x="38" y="21" width="3" height="1" fill="#9CDBA9" />
<rect x="44" y="21" width="1" height="15" fill="#9CDBA9" />
<rect x="6" y="22" width="1" height="2" fill="#9CDBA9" />
<rect x="7" y="22" width="3" height="2" fill="#18695F" />
<rect x="10" y="22" width="1" height="8" fill="#289688" />
<rect x="17" y="22" width="1" height="14" fill="#289688" />
<rect x="18" y="22" width="1" height="1" fill="#9CDBA9" />
<rect x="29" y="22" width="1" height="1" fill="#9CDBA9" />
<rect x="30" y="22" width="4" height="1" fill="#18695F" />
<rect x="34" y="22" width="1" height="14" fill="#289688" />
<rect x="38" y="22" width="1" height="9" fill="#289688" />
<rect x="39" y="22" width="2" height="3" fill="#9CDBA9" />
<rect x="18" y="23" width="1" height="14" fill="#289688" />
<rect x="23" y="23" width="1" height="8" fill="#288F96" />
<rect x="29" y="23" width="2" height="1" fill="#18695F" />
<rect x="31" y="23" width="3" height="14" fill="#289688" />
<rect x="49" y="23" width="1" height="11" fill="#9CDBA9" />
<rect x="6" y="24" width="3" height="1" fill="#18695F" />
<rect x="9" y="24" width="1" height="5" fill="#289688" />
<rect x="22" y="24" width="1" height="6" fill="#9CDBA9" />
<rect x="24" y="24" width="3" height="1" fill="#9CDBA9" />
<rect x="27" y="24" width="3" height="2" fill="#18695F" />
<rect x="30" y="24" width="1" height="15" fill="#289688" />
<rect x="6" y="25" width="2" height="4" fill="#18695F" />
<rect x="8" y="25" width="1" height="3" fill="#289688" />
<rect x="19" y="25" width="1" height="13" fill="#289688" />
<rect x="20" y="25" width="1" height="2" fill="#9CDBA9" />
<rect x="24" y="25" width="1" height="2" fill="#288F96" />
<rect x="25" y="25" width="1" height="2" fill="#9CDBA9" />
<rect x="26" y="25" width="1" height="4" fill="#18695F" />
<rect x="39" y="25" width="1" height="3" fill="#289688" />
<rect x="40" y="25" width="1" height="14" fill="#9CDBA9" />
<rect x="27" y="26" width="2" height="1" fill="#18695F" />
<rect x="29" y="26" width="1" height="13" fill="#289688" />
<rect x="20" y="27" width="1" height="12" fill="#289688" />
<rect x="24" y="27" width="1" height="2" fill="#9CDBA9" />
<rect x="25" y="27" width="1" height="4" fill="#18695F" />
<rect x="27" y="27" width="1" height="1" fill="#18695F" />
<rect x="28" y="27" width="1" height="13" fill="#289688" />
<rect x="8" y="28" width="1" height="3" fill="#18695F" />
<rect x="21" y="28" width="1" height="12" fill="#289688" />
<rect x="27" y="28" width="1" height="12" fill="#289688" />
<rect x="39" y="28" width="1" height="16" fill="#9CDBA9" />
<rect x="6" y="29" width="1" height="1" fill="#9CDBA9" />
<rect x="7" y="29" width="1" height="2" fill="#18695F" />
<rect x="9" y="29" width="1" height="3" fill="#18695F" />
<rect x="24" y="29" width="1" height="5" fill="#18695F" />
<rect x="26" y="29" width="1" height="12" fill="#289688" />
<rect x="6" y="30" width="1" height="7" fill="#7BAA85" />
<rect x="10" y="30" width="1" height="3" fill="#18695F" />
<rect x="22" y="30" width="1" height="3" fill="#289688" />
<rect x="3" y="31" width="1" height="1" fill="#9CDBA9" />
<rect x="4" y="31" width="2" height="6" fill="#7BAA85" />
<rect x="7" y="31" width="2" height="7" fill="#7BAA85" />
<rect x="23" y="31" width="1" height="12" fill="#18695F" />
<rect x="25" y="31" width="1" height="11" fill="#289688" />
<rect x="38" y="31" width="1" height="13" fill="#9CDBA9" />
<rect x="2" y="32" width="2" height="4" fill="#7BAA85" />
<rect x="9" y="32" width="1" height="7" fill="#7BAA85" />
<rect x="11" y="32" width="1" height="2" fill="#18695F" />
<rect x="10" y="33" width="1" height="6" fill="#7BAA85" />
<rect x="12" y="33" width="2" height="1" fill="#18695F" />
<rect x="14" y="33" width="1" height="1" fill="#289688" />
<rect x="22" y="33" width="1" height="6" fill="#18695F" />
<rect x="35" y="33" width="2" height="1" fill="#289688" />
<rect x="37" y="33" width="1" height="10" fill="#9CDBA9" />
<rect x="11" y="34" width="2" height="5" fill="#7BAA85" />
<rect x="13" y="34" width="2" height="1" fill="#18695F" />
<rect x="24" y="34" width="1" height="9" fill="#289688" />
<rect x="35" y="34" width="1" height="1" fill="#289688" />
<rect x="36" y="34" width="1" height="8" fill="#9CDBA9" />
<rect x="46" y="34" width="1" height="1" fill="#9CDBA9" />
<rect x="47" y="34" width="3" height="1" fill="#65121C" />
<rect x="13" y="35" width="2" height="5" fill="#7BAA85" />
<rect x="15" y="35" width="2" height="1" fill="#18695F" />
<rect x="35" y="35" width="1" height="7" fill="#9CDBA9" />
<rect x="45" y="35" width="1" height="1" fill="#65121C" />
<rect x="46" y="35" width="1" height="15" fill="#9A2634" />
<rect x="47" y="35" width="1" height="1" fill="#65121C" />
<rect x="48" y="35" width="2" height="15" fill="#9A2634" />
<rect x="2" y="36" width="2" height="3" fill="#9CDBA9" />
<rect x="15" y="36" width="1" height="4" fill="#7BAA85" />
<rect x="16" y="36" width="2" height="1" fill="#18695F" />
<rect x="34" y="36" width="1" height="13" fill="#9CDBA9" />
<rect x="42" y="36" width="1" height="2" fill="#9CDBA9" />
<rect x="43" y="36" width="2" height="3" fill="#65121C" />
<rect x="45" y="36" width="1" height="5" fill="#9A2634" />
<rect x="47" y="36" width="1" height="14" fill="#9A2634" />
<rect x="4" y="37" width="3" height="2" fill="#9CDBA9" />
<rect x="16" y="37" width="1" height="4" fill="#7BAA85" />
<rect x="17" y="37" width="2" height="1" fill="#18695F" />
<rect x="31" y="37" width="2" height="1" fill="#289688" />
<rect x="33" y="37" width="1" height="11" fill="#9CDBA9" />
<rect x="7" y="38" width="2" height="6" fill="#9CDBA9" />
<rect x="17" y="38" width="1" height="4" fill="#7BAA85" />
<rect x="18" y="38" width="2" height="1" fill="#18695F" />
<rect x="31" y="38" width="2" height="10" fill="#9CDBA9" />
<rect x="41" y="38" width="2" height="2" fill="#65121C" />
<rect x="2" y="39" width="1" height="1" fill="#9CDBA9" />
<rect x="3" y="39" width="2" height="2" fill="#65121C" />
<rect x="5" y="39" width="2" height="3" fill="#9CDBA9" />
<rect x="9" y="39" width="4" height="5" fill="#9CDBA9" />
<rect x="18" y="39" width="1" height="3" fill="#7BAA85" />
<rect x="19" y="39" width="2" height="1" fill="#18695F" />
<rect x="22" y="39" width="1" height="2" fill="#289688" />
<rect x="29" y="39" width="2" height="9" fill="#9CDBA9" />
<rect x="40" y="39" width="1" height="1" fill="#65121C" />
<rect x="43" y="39" width="2" height="1" fill="#9A2634" />
<rect x="2" y="40" width="1" height="2" fill="#65121C" />
<rect x="13" y="40" width="3" height="2" fill="#9CDBA9" />
<rect x="19" y="40" width="1" height="2" fill="#7BAA85" />
<rect x="20" y="40" width="2" height="1" fill="#18695F" />
<rect x="27" y="40" width="2" height="10" fill="#9CDBA9" />
<rect x="40" y="40" width="2" height="3" fill="#9CDBA9" />
<rect x="42" y="40" width="2" height="1" fill="#65121C" />
<rect x="44" y="40" width="1" height="1" fill="#9A2634" />
<rect x="0" y="41" width="1" height="1" fill="#9CDBA9" />
<rect x="1" y="41" width="1" height="1" fill="#65121C" />
<rect x="3" y="41" width="1" height="9" fill="#9A2634" />
<rect x="4" y="41" width="1" height="2" fill="#65121C" />
<rect x="16" y="41" width="1" height="3" fill="#9CDBA9" />
<rect x="20" y="41" width="1" height="2" fill="#7BAA85" />
<rect x="21" y="41" width="2" height="1" fill="#18695F" />
<rect x="26" y="41" width="1" height="8" fill="#9CDBA9" />
<rect x="42" y="41" width="2" height="2" fill="#9CDBA9" />
<rect x="44" y="41" width="2" height="1" fill="#65121C" />
<rect x="0" y="42" width="1" height="1" fill="#65121C" />
<rect x="1" y="42" width="2" height="8" fill="#9A2634" />
<rect x="5" y="42" width="1" height="5" fill="#65121C" />
<rect x="6" y="42" width="1" height="4" fill="#9CDBA9" />
<rect x="13" y="42" width="2" height="3" fill="#9CDBA9" />
<rect x="15" y="42" width="1" height="4" fill="#65121C" />
<rect x="17" y="42" width="3" height="7" fill="#9CDBA9" />
<rect x="21" y="42" width="2" height="1" fill="#7BAA85" />
<rect x="25" y="42" width="1" height="6" fill="#9CDBA9" />
<rect x="35" y="42" width="2" height="3" fill="#65121C" />
<rect x="44" y="42" width="1" height="2" fill="#65121C" />
<rect x="45" y="42" width="1" height="8" fill="#9A2634" />
<rect x="0" y="43" width="1" height="7" fill="#9A2634" />
<rect x="4" y="43" width="1" height="7" fill="#9A2634" />
<rect x="20" y="43" width="2" height="7" fill="#9CDBA9" />
<rect x="22" y="43" width="3" height="1" fill="#7BAA85" />
<rect x="37" y="43" width="1" height="1" fill="#65121C" />
<rect x="40" y="43" width="1" height="1" fill="#9CDBA9" />
<rect x="41" y="43" width="3" height="1" fill="#65121C" />
<rect x="7" y="44" width="1" height="2" fill="#9CDBA9" />
<rect x="8" y="44" width="2" height="2" fill="#65121C" />
<rect x="10" y="44" width="3" height="2" fill="#9CDBA9" />
<rect x="16" y="44" width="1" height="6" fill="#65121C" />
<rect x="22" y="44" width="3" height="4" fill="#9CDBA9" />
<rect x="37" y="44" width="1" height="2" fill="#9A2634" />
<rect x="38" y="44" width="3" height="1" fill="#65121C" />
<rect x="41" y="44" width="1" height="1" fill="#9CDBA9" />
<rect x="42" y="44" width="1" height="2" fill="#65121C" />
<rect x="43" y="44" width="2" height="1" fill="#9A2634" />
<rect x="13" y="45" width="1" height="1" fill="#9CDBA9" />
<rect x="14" y="45" width="1" height="2" fill="#65121C" />
<rect x="35" y="45" width="1" height="4" fill="#9CDBA9" />
<rect x="36" y="45" width="1" height="2" fill="#65121C" />
<rect x="38" y="45" width="2" height="3" fill="#9A2634" />
<rect x="40" y="45" width="2" height="1" fill="#65121C" />
<rect x="43" y="45" width="1" height="1" fill="#65121C" />
<rect x="44" y="45" width="1" height="5" fill="#9A2634" />
<rect x="6" y="46" width="1" height="1" fill="#65121C" />
<rect x="7" y="46" width="3" height="4" fill="#9A2634" />
<rect x="10" y="46" width="1" height="4" fill="#65121C" />
<rect x="11" y="46" width="2" height="1" fill="#9CDBA9" />
<rect x="13" y="46" width="1" height="1" fill="#65121C" />
<rect x="15" y="46" width="1" height="4" fill="#9A2634" />
<rect x="37" y="46" width="1" height="4" fill="#65121C" />
<rect x="40" y="46" width="4" height="4" fill="#9A2634" />
<rect x="5" y="47" width="2" height="3" fill="#9A2634" />
<rect x="11" y="47" width="1" height="1" fill="#9CDBA9" />
<rect x="12" y="47" width="1" height="1" fill="#65121C" />
<rect x="13" y="47" width="2" height="3" fill="#9A2634" />
<rect x="36" y="47" width="1" height="3" fill="#9CDBA9" />
<rect x="11" y="48" width="1" height="2" fill="#65121C" />
<rect x="12" y="48" width="1" height="2" fill="#9A2634" />
<rect x="22" y="48" width="1" height="1" fill="#9CDBA9" />
<rect x="23" y="48" width="3" height="1" fill="#65121C" />
<rect x="29" y="48" width="1" height="1" fill="#9CDBA9" />
<rect x="30" y="48" width="4" height="1" fill="#65121C" />
<rect x="38" y="48" width="1" height="2" fill="#65121C" />
<rect x="39" y="48" width="1" height="2" fill="#9A2634" />
<rect x="17" y="49" width="1" height="1" fill="#65121C" />
<rect x="18" y="49" width="2" height="1" fill="#9CDBA9" />
<rect x="22" y="49" width="2" height="1" fill="#65121C" />
<rect x="24" y="49" width="1" height="1" fill="#9A2634" />
<rect x="25" y="49" width="2" height="1" fill="#65121C" />
<rect x="29" y="49" width="2" height="1" fill="#65121C" />
<rect x="31" y="49" width="2" height="1" fill="#9A2634" />
<rect x="33" y="49" width="3" height="1" fill="#65121C" />
</svg>